<svg width="32" height="32" viewBox="0 0 32 32" fill="none" xmlns="http://www.w3.org/2000/svg">
  <!-- Lamp base -->
  <path d="M8 22c0-2 2-4 4-4h8c2 0 4 2 4 4v4c0 1-1 2-2 2H10c-1 0-2-1-2-2v-4z" fill="#FFD700"/>
  
  <!-- Lamp body -->
  <path d="M12 18c0-6 4-10 4-10s4 4 4 10" fill="#FF9F1C"/>
  
  <!-- Lamp spout -->
  <path d="M20 16c2-1 4-1 6 0v2c-2-1-4-1-6 0v-2z" fill="#FFD700"/>
  
  <!-- Magic sparkles -->
  <circle cx="6" cy="8" r="1" fill="#38BEBA"/>
  <circle cx="26" cy="12" r="1.5" fill="#38BEBA"/>
  <circle cx="4" cy="16" r="1" fill="#FFD700"/>
  <circle cx="28" cy="6" r="1" fill="#FF9F1C"/>
  
  <!-- Lamp handle -->
  <path d="M8 20c-1 0-2-1-2-2s1-2 2-2" stroke="#D4AF37" stroke-width="2" fill="none"/>
  
  <!-- Decorative band -->
  <rect x="12" y="14" width="8" height="2" fill="#D4AF37"/>
</svg>
